# Blender v2.78 (sub 0) OBJ File: 'Consola.blend'
# www.blender.org
mtllib Consolita.mtl
o Plane.004
v -2.195595 -0.000000 -1.781039
v -1.846509 -0.000000 -1.781039
v -2.195595 -0.000000 -1.868329
v -1.846509 -0.000000 -1.868329
v -2.195595 0.933438 -1.868329
v -2.195595 0.933438 -1.781039
v -1.846509 0.933438 -1.781039
v -1.846509 0.933438 -1.868329
v -2.195595 0.049821 -1.868329
v -1.846509 0.049821 -1.868329
v -1.846509 0.049821 -1.781039
v -2.195595 0.049821 -1.781039
v -2.195595 -0.000000 -1.629850
v -1.846509 -0.000000 -1.629850
v -2.195595 0.049821 -1.629850
v -1.846509 0.049821 -1.629850
v -2.195595 1.402316 -1.575446
v -2.195595 1.360280 -1.498945
v -1.846509 1.360280 -1.498945
v -1.846509 1.402316 -1.575446
vn 0.0000 -1.0000 0.0000
vn 1.0000 0.0000 0.0000
vn 0.0000 0.0000 -1.0000
vn 0.0000 0.0000 1.0000
vn -1.0000 0.0000 0.0000
vn 0.0000 1.0000 0.0000
vn 0.0000 0.8764 0.4816
vn 0.0000 0.5298 -0.8481
vn 0.0000 -0.5514 0.8343
usemtl None
s off
f 1//1 3//1 4//1 2//1
f 7//2 8//2 20//2 19//2
f 10//3 9//3 5//3 8//3
f 12//4 11//4 7//4 6//4
f 11//2 10//2 8//2 7//2
f 9//5 12//5 6//5 5//5
f 3//5 1//5 12//5 9//5
f 2//2 4//2 10//2 11//2
f 2//2 11//2 16//2 14//2
f 4//3 3//3 9//3 10//3
f 13//4 14//4 16//4 15//4
f 1//1 2//1 14//1 13//1
f 12//5 1//5 13//5 15//5
f 11//6 12//6 15//6 16//6
f 18//7 19//7 20//7 17//7
f 5//5 6//5 18//5 17//5
f 8//8 5//8 17//8 20//8
f 6//9 7//9 19//9 18//9
