# Blender v2.78 (sub 0) OBJ File: 'Consola.blend'
# www.blender.org
mtllib Pantallas.mtl
o Plane.015
v -5.969410 1.632082 -3.470430
v -5.969410 4.801423 -3.470430
v -5.969411 1.632082 3.855825
v -5.969411 4.801423 3.855825
v -6.089108 1.632082 3.855825
v -6.089107 1.632082 -3.470430
v -6.089107 4.801423 -3.470430
v -6.089108 4.801423 3.855825
v -6.009295 1.790805 -3.103525
v -6.009295 4.642699 -3.103525
v -6.009296 1.790805 3.488920
v -6.009296 4.642699 3.488920
vn -0.9698 0.2437 -0.0000
vn 1.0000 0.0000 0.0000
vn 0.0000 -1.0000 0.0000
vn 0.0000 1.0000 0.0000
vn 0.0000 0.0000 -1.0000
vn 0.0000 0.0000 1.0000
vn -1.0000 0.0000 -0.0000
vn -0.9698 -0.2437 -0.0000
vn -0.9941 0.0000 0.1081
vn -0.9941 0.0000 -0.1081
usemtl None
s off
f 4//1 2//1 10//1 12//1
f 6//2 7//2 8//2 5//2
f 2//3 4//3 8//3 7//3
f 3//4 1//4 6//4 5//4
f 4//5 3//5 5//5 8//5
f 1//6 2//6 7//6 6//6
f 9//7 11//7 12//7 10//7
f 1//8 3//8 11//8 9//8
f 3//9 4//9 12//9 11//9
f 2//10 1//10 9//10 10//10
o Plane.014
v -5.365157 1.400602 5.998263
v -5.365157 5.833733 5.998263
v 4.882476 1.400601 5.998263
v 4.882476 5.833732 5.998263
v 4.882476 1.400601 6.165690
v -5.365157 1.400602 6.165690
v -5.365157 5.833733 6.165690
v 4.882476 5.833732 6.165690
v -4.851947 1.622617 6.054053
v -4.851947 5.611717 6.054053
v 4.369266 1.622616 6.054054
v 4.369266 5.611716 6.054054
vn 0.0000 0.2437 0.9698
vn 0.0000 0.0000 -1.0000
vn -0.0000 -1.0000 0.0000
vn 0.0000 1.0000 0.0000
vn -1.0000 0.0000 0.0000
vn 1.0000 0.0000 0.0000
vn -0.0000 0.0000 1.0000
vn -0.0000 -0.2437 0.9698
vn 0.1081 0.0000 0.9941
vn -0.1081 0.0000 0.9941
usemtl None
s off
f 16//11 14//11 22//11 24//11
f 18//12 19//12 20//12 17//12
f 14//13 16//13 20//13 19//13
f 15//14 13//14 18//14 17//14
f 16//15 15//15 17//15 20//15
f 13//16 14//16 19//16 18//16
f 21//17 23//17 24//17 22//17
f 13//18 15//18 23//18 21//18
f 15//19 16//19 24//19 23//19
f 14//20 13//20 21//20 22//20
o Plane.013
v 5.983762 1.734581 3.663127
v 5.983762 4.903922 3.663127
v 5.983762 1.734581 -3.663127
v 5.983762 4.903922 -3.663127
v 6.103459 1.734581 -3.663127
v 6.103459 1.734581 3.663127
v 6.103459 4.903922 3.663127
v 6.103459 4.903922 -3.663127
v 6.023648 1.893305 3.296222
v 6.023648 4.745199 3.296222
v 6.023648 1.893305 -3.296222
v 6.023648 4.745199 -3.296222
vn 0.9698 0.2437 0.0000
vn -1.0000 0.0000 0.0000
vn 0.0000 -1.0000 0.0000
vn 0.0000 1.0000 0.0000
vn 0.0000 0.0000 1.0000
vn 0.0000 0.0000 -1.0000
vn 1.0000 0.0000 0.0000
vn 0.9698 -0.2437 0.0000
vn 0.9941 0.0000 -0.1081
vn 0.9941 0.0000 0.1081
usemtl None
s off
f 28//21 26//21 34//21 36//21
f 30//22 31//22 32//22 29//22
f 26//23 28//23 32//23 31//23
f 27//24 25//24 30//24 29//24
f 28//25 27//25 29//25 32//25
f 25//26 26//26 31//26 30//26
f 33//27 35//27 36//27 34//27
f 25//28 27//28 35//28 33//28
f 27//29 28//29 36//29 35//29
f 26//30 25//30 33//30 34//30
