# Blender v2.78 (sub 0) OBJ File: 'Consola.blend'
# www.blender.org
mtllib Puerta.mtl
o Plane.017
v 3.518552 5.268950 -6.151661
v 3.518552 -0.327012 -6.151661
v 3.518552 5.268950 -6.339525
v 3.518552 -0.327012 -6.339525
v 5.150531 -0.327012 -6.339525
v 5.150531 5.268950 -6.339525
v 5.150531 -0.327012 -6.151661
v 5.150531 5.268950 -6.151661
vn 0.0000 0.0000 1.0000
vn 0.0000 0.0000 -1.0000
vn 0.0000 -1.0000 0.0000
vn 0.0000 1.0000 0.0000
vn -1.0000 0.0000 0.0000
usemtl None
s off
f 7//1 8//1 1//1 2//1
f 5//2 4//2 3//2 6//2
f 4//3 5//3 7//3 2//3
f 6//4 3//4 1//4 8//4
f 3//5 4//5 2//5 1//5
o Plane.016
v 1.907854 -0.327012 -6.339525
v 1.907854 5.268950 -6.339525
v 1.907854 -0.327012 -6.151661
v 1.907854 5.268950 -6.151661
v 3.539833 -0.327012 -6.339525
v 3.539833 5.268950 -6.339525
v 3.539833 -0.327012 -6.151661
v 3.539833 5.268950 -6.151661
vn 0.0000 1.0000 0.0000
vn -1.0000 0.0000 0.0000
vn 0.0000 0.0000 1.0000
vn 0.0000 0.0000 -1.0000
vn 0.0000 -1.0000 0.0000
usemtl None
s off
f 14//6 10//6 12//6 16//6
f 10//7 9//7 11//7 12//7
f 15//8 16//8 12//8 11//8
f 13//9 9//9 10//9 14//9
f 9//10 13//10 15//10 11//10
