# Blender v2.78 (sub 0) OBJ File: ''
# www.blender.org
mtllib librero.mtl
o Plane
v -1.000000 0.000000 -0.801360
v -0.651012 0.000000 -0.801360
v -0.651012 1.501166 -0.801360
v -1.000000 1.501166 -0.801360
v -1.000000 1.501166 -0.396236
v -0.651012 1.501166 -0.396236
v -1.000000 1.501166 0.001015
v -0.651012 1.501166 0.001015
v -0.651012 2.168472 -0.801360
v -1.000000 2.168472 -0.801360
v -1.000000 2.168472 -0.396236
v -0.651012 2.168472 -0.396236
v -1.000000 2.168472 0.001015
v -0.651012 2.168472 0.001015
v -0.651012 1.858840 -0.396236
v -1.000000 1.858840 -0.396236
v -0.651012 1.858840 0.001015
v -1.000000 1.858840 0.001015
v -0.651012 1.858840 -0.801360
v -1.000000 1.858840 -0.801360
v -1.000000 1.000778 -0.801360
v -1.000000 0.500389 -0.801360
v -0.651012 0.500389 -0.801360
v -0.651012 1.000778 -0.801360
v -0.651012 1.501166 -0.825695
v -1.000000 1.501166 -0.825695
v -0.651012 0.000000 -0.825695
v -1.000000 0.000000 -0.825695
v -0.651012 1.501166 -0.420571
v -1.000000 1.501166 -0.420571
v -1.000000 0.500389 -0.825695
v -0.651012 1.000778 -0.825695
v -0.651012 2.168472 -0.825695
v -1.000000 2.168472 -0.825695
v -0.651012 2.168472 -0.420571
v -1.000000 2.168472 -0.420571
v -0.651012 1.858840 -0.420571
v -1.000000 1.858840 -0.420571
v -0.651012 1.858840 -0.825695
v -1.000000 1.858840 -0.825695
v -1.000000 1.000778 -0.825695
v -0.651012 0.500389 -0.825695
v -1.000000 1.501166 -0.017224
v -0.651012 1.501166 -0.017224
v -1.000000 2.168472 -0.017224
v -0.651012 2.168472 -0.017224
v -0.651012 1.858840 -0.017224
v -1.000000 1.858840 -0.017224
v -0.651012 1.491226 -0.801360
v -1.000000 1.491226 -0.801360
v -0.651012 1.491226 -0.396236
v -1.000000 1.491226 -0.396236
v -1.000000 1.491226 0.001015
v -0.651012 1.491226 0.001015
v -0.651012 2.158532 -0.801360
v -1.000000 2.158532 -0.801360
v -1.000000 1.848900 -0.801360
v -0.651012 1.848900 -0.801360
v -1.000000 2.192398 -0.825695
v -0.651012 2.192398 -0.825695
v -1.000000 1.848900 0.001015
v -1.000000 1.848900 -0.396236
v -0.651012 1.848900 -0.396236
v -0.651012 1.848900 0.001015
v -0.651012 0.490448 -0.801360
v -1.000000 0.490448 -0.801360
v -0.651012 0.990837 -0.801360
v -1.000000 0.990837 -0.801360
v -0.651012 2.192398 0.001015
v -1.000000 2.192398 0.001015
v -1.000000 0.000000 0.801360
v -0.651012 0.000000 0.801360
v -0.651012 1.501166 0.801360
v -1.000000 1.501166 0.801360
v -1.000000 1.501166 0.396236
v -0.651012 1.501166 0.396236
v -1.000000 1.501166 -0.001015
v -0.651012 1.501166 -0.001015
v -0.651012 2.168472 0.801360
v -1.000000 2.168472 0.801360
v -1.000000 2.168472 0.396236
v -0.651012 2.168472 0.396236
v -1.000000 2.168472 -0.001015
v -0.651012 2.168472 -0.001015
v -0.651012 1.858840 0.396236
v -1.000000 1.858840 0.396236
v -0.651012 1.858840 -0.001015
v -1.000000 1.858840 -0.001015
v -0.651012 1.858840 0.801360
v -1.000000 1.858840 0.801360
v -1.000000 1.000778 0.801360
v -1.000000 0.500389 0.801360
v -0.651012 0.500389 0.801360
v -0.651012 1.000778 0.801360
v -0.651012 1.501166 0.825695
v -1.000000 1.501166 0.825695
v -0.651012 0.000000 0.825695
v -1.000000 0.000000 0.825695
v -0.651012 1.501166 0.420571
v -1.000000 1.501166 0.420571
v -1.000000 0.500389 0.825695
v -0.651012 1.000778 0.825695
v -0.651012 2.168472 0.825695
v -1.000000 2.168472 0.825695
v -0.651012 2.168472 0.420571
v -1.000000 2.168472 0.420571
v -0.651012 1.858840 0.420571
v -1.000000 1.858840 0.420571
v -0.651012 1.858840 0.825695
v -1.000000 1.858840 0.825695
v -1.000000 1.000778 0.825695
v -0.651012 0.500389 0.825695
v -1.000000 1.501166 0.017224
v -0.651012 1.501166 0.017224
v -1.000000 2.168472 0.017224
v -0.651012 2.168472 0.017224
v -0.651012 1.858840 0.017224
v -1.000000 1.858840 0.017224
v -0.651012 1.491226 0.801360
v -1.000000 1.491226 0.801360
v -0.651012 1.491226 0.396236
v -1.000000 1.491226 0.396236
v -1.000000 1.491226 -0.001015
v -0.651012 1.491226 -0.001015
v -0.651012 2.158532 0.801360
v -1.000000 2.158532 0.801360
v -1.000000 1.848900 0.801360
v -0.651012 1.848900 0.801360
v -1.000000 2.192398 0.825695
v -0.651012 2.192398 0.825695
v -1.000000 1.848900 -0.001015
v -1.000000 1.848900 0.396236
v -0.651012 1.848900 0.396236
v -0.651012 1.848900 -0.001015
v -0.651012 0.490448 0.801360
v -1.000000 0.490448 0.801360
v -0.651012 0.990837 0.801360
v -1.000000 0.990837 0.801360
v -0.651012 2.192398 -0.001015
v -1.000000 2.192398 -0.001015
v -0.972564 1.000778 -0.801360
v -0.972564 0.500389 -0.801360
v -0.972564 1.000778 0.801360
v -0.972564 0.500389 0.801360
vn -1.0000 0.0000 0.0000
vn 1.0000 0.0000 0.0000
vn 0.0000 1.0000 0.0000
vn -0.0000 0.0000 1.0000
vn 0.0000 0.0000 -1.0000
vn 0.0000 -1.0000 0.0000
usemtl Material.001
s off
f 16//1 11//1 36//1 38//1
f 15//1 19//1 58//1 63//1
f 6//2 8//2 54//2 51//2
f 14//2 17//2 47//2 46//2
f 15//2 6//2 29//2 37//2
f 20//2 16//2 62//2 57//2
f 1//3 2//3 27//3 28//3
f 18//1 13//1 45//1 48//1
f 11//3 12//3 35//3 36//3
f 7//1 5//1 52//1 53//1
f 16//2 18//2 61//2 62//2
f 41//4 32//4 25//4 26//4
f 37//5 38//5 36//5 35//5
f 34//1 13//1 70//1 59//1
f 39//5 40//5 34//5 33//5
f 25//5 26//5 40//5 39//5
f 29//5 30//5 38//5 37//5
f 28//4 27//4 42//4 31//4
f 31//4 42//4 32//4 41//4
f 9//2 19//2 39//2 33//2
f 4//1 20//1 40//1 26//1
f 22//2 1//2 28//2 31//2
f 4//2 21//2 41//2 26//2
f 19//2 3//2 25//2 39//2
f 21//2 22//2 31//2 41//2
f 24//1 3//1 25//1 32//1
f 20//1 10//1 34//1 40//1
f 2//1 23//1 42//1 27//1
f 23//1 24//1 32//1 42//1
f 10//3 9//3 33//3 34//3
f 12//2 15//2 37//2 35//2
f 5//1 16//1 38//1 30//1
f 6//4 15//4 12//4 11//4 16//4 5//4
f 10//4 20//4 19//4 9//4
f 23//5 2//5 1//5 22//5 21//5 4//5 20//5 19//5 3//5 24//5
f 47//5 48//5 45//5 46//5
f 44//5 43//5 48//5 47//5
f 13//3 14//3 46//3 45//3
f 8//6 7//6 43//6 44//6
f 7//1 18//1 48//1 43//1
f 17//2 8//2 44//2 47//2
f 18//4 7//4 8//4 17//4 14//4 13//4
f 50//6 49//6 51//6 52//6
f 53//6 52//6 51//6 54//6
f 33//5 34//5 59//5 60//5
f 14//2 33//2 60//2 69//2
f 70//3 69//3 60//3 59//3
f 17//1 15//1 63//1 64//1
f 19//4 20//4 57//4 58//4
f 22//5 23//5 65//5 66//5
f 9//4 10//4 56//4 55//4
f 3//2 6//2 51//2 49//2
f 21//5 24//5 67//5 68//5
f 5//1 4//1 50//1 52//1
f 4//5 3//5 49//5 50//5
f 13//4 14//4 69//4 70//4
f 61//3 64//3 63//3 62//3
f 18//6 16//6 15//6 17//6
f 58//3 57//3 62//3 63//3
f 16//6 20//6 19//6 15//6
f 8//3 6//3 5//3 7//3
f 4//3 5//3 6//3 3//3
f 86//1 108//1 106//1 81//1
f 85//1 133//1 128//1 89//1
f 76//2 121//2 124//2 78//2
f 84//2 116//2 117//2 87//2
f 85//2 107//2 99//2 76//2
f 90//2 127//2 132//2 86//2
f 71//3 98//3 97//3 72//3
f 88//1 118//1 115//1 83//1
f 81//3 106//3 105//3 82//3
f 77//1 123//1 122//1 75//1
f 86//2 132//2 131//2 88//2
f 111//5 96//5 95//5 102//5
f 107//4 105//4 106//4 108//4
f 104//1 129//1 140//1 83//1
f 109//4 103//4 104//4 110//4
f 95//4 109//4 110//4 96//4
f 99//4 107//4 108//4 100//4
f 98//5 101//5 112//5 97//5
f 101//5 111//5 102//5 112//5
f 79//2 103//2 109//2 89//2
f 74//1 96//1 110//1 90//1
f 92//2 101//2 98//2 71//2
f 74//2 96//2 111//2 91//2
f 89//2 109//2 95//2 73//2
f 91//2 111//2 101//2 92//2
f 94//1 102//1 95//1 73//1
f 90//1 110//1 104//1 80//1
f 72//1 97//1 112//1 93//1
f 93//1 112//1 102//1 94//1
f 80//3 104//3 103//3 79//3
f 82//2 105//2 107//2 85//2
f 75//1 100//1 108//1 86//1
f 76//5 75//5 86//5 81//5 82//5 85//5
f 80//5 79//5 89//5 90//5
f 93//4 94//4 73//4 89//4 90//4 74//4 91//4 92//4 71//4 72//4
f 117//4 116//4 115//4 118//4
f 114//4 117//4 118//4 113//4
f 83//3 115//3 116//3 84//3
f 78//6 114//6 113//6 77//6
f 77//1 113//1 118//1 88//1
f 87//2 117//2 114//2 78//2
f 88//5 83//5 84//5 87//5 78//5 77//5
f 120//6 122//6 121//6 119//6
f 123//6 124//6 121//6 122//6
f 103//4 130//4 129//4 104//4
f 84//2 139//2 130//2 103//2
f 140//3 129//3 130//3 139//3
f 87//1 134//1 133//1 85//1
f 89//5 128//5 127//5 90//5
f 92//4 136//4 135//4 93//4
f 79//5 125//5 126//5 80//5
f 73//2 119//2 121//2 76//2
f 91//4 138//4 137//4 94//4
f 75//1 122//1 120//1 74//1
f 74//4 120//4 119//4 73//4
f 83//5 140//5 139//5 84//5
f 131//3 132//3 133//3 134//3
f 88//6 87//6 85//6 86//6
f 128//3 133//3 132//3 127//3
f 86//6 85//6 89//6 90//6
f 78//3 77//3 75//3 76//3
f 74//3 73//3 76//3 75//3
f 22//3 92//3 144//3 142//3
f 143//1 141//1 142//1 144//1
f 21//4 22//4 142//4 141//4
f 92//5 91//5 143//5 144//5
f 91//6 21//6 141//6 143//6
f 21//2 91//2 92//2 22//2
l 20 18
l 19 17
l 90 88
l 89 87
