# Blender v2.78 (sub 0) OBJ File: 'mueblesAdd.blend'
# www.blender.org
mtllib tooper.mtl
o Plane.004_Plane.005
v 6.593820 1.527744 -3.884444
v 6.587457 1.527744 -3.897281
v 6.402177 1.527744 -3.897281
v 6.410869 1.527744 -3.901979
v 6.578765 1.527744 -3.901979
v 6.395814 1.527744 -3.884444
v 6.587457 1.527744 -3.497821
v 6.596149 1.527744 -3.866909
v 6.593820 1.527744 -3.510657
v 6.596149 1.527744 -3.528192
v 6.393485 1.527744 -3.866909
v 6.393485 1.527744 -3.528192
v 6.395814 1.527744 -3.510657
v 6.578765 1.527744 -3.493122
v 6.402177 1.527744 -3.497821
v 6.410869 1.527744 -3.493122
v 6.410869 1.633548 -3.901979
v 6.393485 1.633548 -3.866909
v 6.402177 1.633548 -3.897281
v 6.395814 1.633548 -3.884444
v 6.393485 1.633548 -3.528192
v 6.410869 1.633548 -3.493122
v 6.395814 1.633548 -3.510657
v 6.402177 1.633548 -3.497821
v 6.578765 1.633548 -3.493122
v 6.596149 1.633548 -3.528192
v 6.587457 1.633548 -3.497821
v 6.593820 1.633548 -3.510657
v 6.596149 1.633548 -3.866909
v 6.578765 1.633548 -3.901979
v 6.593820 1.633548 -3.884444
v 6.587457 1.633548 -3.897281
v 6.588428 1.527744 -3.874267
v 6.582412 1.527744 -3.886404
v 6.407221 1.527744 -3.886404
v 6.415440 1.527744 -3.890847
v 6.574193 1.527744 -3.890847
v 6.401205 1.527744 -3.874267
v 6.582412 1.527744 -3.508697
v 6.590631 1.527744 -3.857687
v 6.588428 1.527744 -3.520835
v 6.590631 1.527744 -3.537415
v 6.399003 1.527744 -3.857687
v 6.399003 1.527744 -3.537415
v 6.401205 1.527744 -3.520835
v 6.574193 1.527744 -3.504255
v 6.407221 1.527744 -3.508697
v 6.415440 1.527744 -3.504255
v 6.588428 1.612958 -3.874267
v 6.582412 1.612958 -3.886404
v 6.407221 1.612958 -3.886404
v 6.415440 1.612958 -3.890847
v 6.574193 1.612958 -3.890847
v 6.401205 1.612958 -3.874267
v 6.582412 1.612958 -3.508697
v 6.590631 1.612958 -3.857687
v 6.588428 1.612958 -3.520835
v 6.590631 1.612958 -3.537415
v 6.399003 1.612958 -3.857687
v 6.399003 1.612958 -3.537415
v 6.401205 1.612958 -3.520835
v 6.574193 1.612958 -3.504255
v 6.407221 1.612958 -3.508697
v 6.415440 1.612958 -3.504255
v 6.589012 1.610044 -3.875368
v 6.582958 1.610044 -3.887581
v 6.406676 1.610044 -3.887581
v 6.414946 1.610044 -3.892051
v 6.574688 1.610044 -3.892051
v 6.400622 1.610044 -3.875368
v 6.582958 1.610044 -3.507521
v 6.591228 1.610044 -3.858685
v 6.589012 1.610044 -3.519734
v 6.591228 1.610044 -3.536417
v 6.398406 1.610044 -3.858684
v 6.398406 1.610044 -3.536417
v 6.400622 1.610044 -3.519734
v 6.574688 1.610044 -3.503050
v 6.406676 1.610044 -3.507521
v 6.414946 1.610044 -3.503050
v 6.416260 1.032603 -3.523191
v 6.414946 1.063878 -3.503050
v 6.415603 1.036793 -3.513120
v 6.415122 1.048241 -3.505749
v 6.408389 1.032603 -3.539069
v 6.398406 1.063878 -3.536417
v 6.403398 1.036793 -3.537743
v 6.399744 1.048241 -3.536772
v 6.411843 1.032603 -3.525578
v 6.406676 1.063878 -3.507521
v 6.409259 1.036793 -3.516549
v 6.407368 1.048241 -3.509940
v 6.409573 1.032603 -3.530159
v 6.400622 1.063878 -3.519734
v 6.405097 1.036793 -3.524946
v 6.401821 1.048241 -3.521131
v 6.581244 1.032603 -3.539069
v 6.591228 1.063878 -3.536417
v 6.586236 1.036793 -3.537743
v 6.589890 1.048241 -3.536772
v 6.573374 1.032603 -3.523191
v 6.574688 1.063878 -3.503050
v 6.574031 1.036793 -3.513120
v 6.574512 1.048241 -3.505749
v 6.580061 1.032603 -3.530159
v 6.589012 1.063878 -3.519734
v 6.584537 1.036793 -3.524946
v 6.587812 1.048241 -3.521131
v 6.577790 1.032603 -3.525578
v 6.582958 1.063878 -3.507521
v 6.580374 1.036793 -3.516549
v 6.582265 1.048241 -3.509940
v 6.408389 1.032603 -3.856033
v 6.398406 1.063878 -3.858684
v 6.403398 1.036793 -3.857359
v 6.399744 1.048241 -3.858329
v 6.416260 1.032603 -3.871911
v 6.414946 1.063878 -3.892051
v 6.415603 1.036793 -3.881981
v 6.415122 1.048241 -3.889353
v 6.409573 1.032603 -3.864942
v 6.400622 1.063878 -3.875368
v 6.405097 1.036793 -3.870155
v 6.401821 1.048241 -3.873971
v 6.411843 1.032603 -3.869524
v 6.406676 1.063878 -3.887581
v 6.409259 1.036793 -3.878552
v 6.407368 1.048241 -3.885162
v 6.573374 1.032603 -3.871911
v 6.574688 1.063878 -3.892051
v 6.574031 1.036793 -3.881981
v 6.574512 1.048241 -3.889353
v 6.581244 1.032603 -3.856033
v 6.591228 1.063878 -3.858685
v 6.586236 1.036793 -3.857359
v 6.589890 1.048241 -3.858329
v 6.577790 1.032603 -3.869524
v 6.582958 1.063878 -3.887581
v 6.580374 1.036793 -3.878552
v 6.582265 1.048241 -3.885162
v 6.580061 1.032603 -3.864942
v 6.589012 1.063878 -3.875368
v 6.584537 1.036793 -3.870155
v 6.587812 1.048241 -3.873971
v 6.583488 1.610044 -3.864941
v 6.577789 1.610044 -3.876438
v 6.411844 1.610044 -3.876438
v 6.419629 1.610044 -3.880646
v 6.570005 1.610044 -3.880646
v 6.406145 1.610044 -3.864941
v 6.577789 1.610044 -3.518663
v 6.585574 1.610044 -3.849236
v 6.583488 1.610044 -3.530160
v 6.585574 1.610044 -3.545866
v 6.404059 1.610044 -3.849236
v 6.404059 1.610044 -3.545866
v 6.406145 1.610044 -3.530160
v 6.570005 1.610044 -3.514455
v 6.411844 1.610044 -3.518663
v 6.419629 1.610044 -3.514455
v 6.580381 1.047077 -3.861321
v 6.583488 1.057935 -3.864941
v 6.582578 1.050257 -3.863881
v 6.575995 1.047077 -3.870169
v 6.577789 1.057935 -3.876438
v 6.577264 1.050257 -3.874602
v 6.413638 1.047077 -3.870169
v 6.411844 1.057935 -3.876438
v 6.412370 1.050257 -3.874602
v 6.420085 1.047077 -3.873654
v 6.419629 1.057935 -3.880646
v 6.419763 1.050257 -3.878598
v 6.570005 1.057935 -3.880646
v 6.569549 1.047077 -3.873654
v 6.569871 1.050257 -3.878598
v 6.406145 1.057935 -3.864941
v 6.409253 1.047077 -3.861321
v 6.407055 1.050257 -3.863881
v 6.577789 1.057935 -3.518663
v 6.575995 1.047077 -3.524933
v 6.577264 1.050257 -3.520500
v 6.585574 1.057935 -3.849236
v 6.582108 1.047077 -3.848315
v 6.584559 1.050257 -3.848966
v 6.583488 1.057935 -3.530160
v 6.580381 1.047077 -3.533780
v 6.582578 1.050257 -3.531221
v 6.582108 1.047077 -3.546786
v 6.585574 1.057935 -3.545866
v 6.584559 1.050257 -3.546135
v 6.407525 1.047077 -3.848315
v 6.404059 1.057935 -3.849236
v 6.405075 1.050257 -3.848966
v 6.407525 1.047077 -3.546786
v 6.404059 1.057935 -3.545866
v 6.405075 1.050257 -3.546135
v 6.406145 1.057935 -3.530160
v 6.409253 1.047077 -3.533780
v 6.407055 1.050257 -3.531221
v 6.569549 1.047077 -3.521448
v 6.570005 1.057935 -3.514455
v 6.569871 1.050257 -3.516503
v 6.413638 1.047077 -3.524933
v 6.411844 1.057935 -3.518663
v 6.412370 1.050257 -3.520500
v 6.420085 1.047077 -3.521448
v 6.419629 1.057935 -3.514455
v 6.419763 1.050257 -3.516503
vn -0.9913 0.0000 0.1317
vn 0.4755 0.0000 0.8797
vn 0.0000 1.0000 0.0000
vn -0.8960 0.0000 0.4441
vn 0.0000 0.0000 1.0000
vn 0.9913 0.0000 0.1317
vn -1.0000 0.0000 0.0000
vn 0.0000 0.0000 -1.0000
vn 1.0000 0.0000 0.0000
vn 0.8960 0.0000 0.4441
vn -0.4755 0.0000 0.8797
vn -0.9913 0.0000 -0.1317
vn 0.9913 0.0000 -0.1317
vn 0.8960 0.0000 -0.4441
vn 0.4755 0.0000 -0.8797
vn -0.8960 0.0000 -0.4441
vn -0.4755 0.0000 -0.8797
vn 0.0000 -1.0000 0.0000
vn -0.1976 -0.9096 0.3655
vn -0.4102 -0.5059 0.7588
vn -0.4698 -0.1552 0.8690
vn -0.4948 -0.8337 0.2453
vn -0.8306 -0.3750 0.4117
vn -0.8907 -0.1078 0.4415
vn -0.6276 -0.7741 0.0834
vn -0.9421 -0.3112 0.1251
vn -0.9875 -0.0874 0.1312
vn -0.1976 -0.9096 -0.3655
vn -0.4102 -0.5059 -0.7588
vn -0.4698 -0.1553 -0.8690
vn -0.4948 -0.8337 -0.2453
vn -0.8306 -0.3750 -0.4117
vn -0.8907 -0.1078 -0.4415
vn -0.6276 -0.7741 -0.0834
vn -0.9420 -0.3113 -0.1251
vn -0.9875 -0.0874 -0.1312
vn 0.6276 -0.7741 -0.0834
vn 0.9420 -0.3113 -0.1251
vn 0.9875 -0.0874 -0.1312
vn 0.4948 -0.8337 -0.2453
vn 0.8306 -0.3749 -0.4117
vn 0.8907 -0.1078 -0.4415
vn 0.1976 -0.9096 -0.3655
vn 0.4102 -0.5059 -0.7588
vn 0.4698 -0.1552 -0.8690
vn 0.6276 -0.7741 0.0834
vn 0.9420 -0.3113 0.1251
vn 0.9875 -0.0874 0.1312
vn 0.4948 -0.8337 0.2453
vn 0.8306 -0.3749 0.4117
vn 0.8907 -0.1078 0.4415
vn 0.1976 -0.9096 0.3655
vn 0.4102 -0.5059 0.7588
vn 0.4698 -0.1553 0.8690
vn 0.0000 -0.1700 0.9854
vn 0.0000 -0.5414 0.8407
vn 0.0000 -0.9233 0.3842
vn -0.9964 -0.0852 0.0000
vn -0.9526 -0.3041 0.0000
vn -0.6430 -0.7659 0.0000
vn 0.0000 -0.1700 -0.9854
vn 0.0000 -0.5414 -0.8407
vn 0.0000 -0.9233 -0.3842
vn 0.9964 -0.0853 0.0000
vn 0.9526 -0.3041 0.0000
vn 0.6429 -0.7659 0.0000
vn 0.9913 0.0000 0.1316
vn -0.4756 0.0000 0.8797
vn 0.9913 0.0000 -0.1316
vn -0.9913 0.0000 -0.1316
vn 0.4756 0.0000 0.8797
vn -0.9913 0.0000 0.1316
vn 0.7775 0.6203 -0.1033
vn 0.9823 0.1345 -0.1305
vn -0.2743 0.8168 -0.5075
vn -0.4621 0.2361 -0.8548
vn 0.7922 0.6103 0.0000
vn 0.9914 0.1311 0.0000
vn 0.8836 0.1653 0.4380
vn 0.6411 0.6986 0.3178
vn -0.4621 0.2361 0.8548
vn -0.2743 0.8168 0.5075
vn 0.4621 0.2361 0.8548
vn 0.2743 0.8168 0.5075
vn 0.0000 0.8410 -0.5410
vn 0.0000 0.2577 -0.9662
vn 0.0000 0.8410 0.5410
vn 0.0000 0.2577 0.9662
vn -0.8837 0.1652 0.4380
vn -0.6410 0.6987 0.3177
vn -0.6410 0.6987 -0.3177
vn -0.8837 0.1652 -0.4380
vn 0.2743 0.8168 -0.5075
vn 0.4621 0.2361 -0.8548
vn -0.7921 0.6104 0.0000
vn -0.9914 0.1311 0.0000
vn 0.9823 0.1345 0.1305
vn 0.7775 0.6203 0.1033
vn 0.6411 0.6986 -0.3178
vn 0.8836 0.1653 -0.4380
vn -0.7775 0.6203 -0.1033
vn -0.9823 0.1345 -0.1305
vn -0.9823 0.1345 0.1305
vn -0.7775 0.6203 0.1033
usemtl Material.008
s off
f 13//1 23//1 21//1 12//1
f 7//2 27//2 25//2 14//2
f 21//3 23//3 24//3 22//3 25//3 27//3 28//3 26//3 29//3 31//3 32//3 30//3 17//3 19//3 20//3 18//3
f 15//4 24//4 23//4 13//4
f 16//5 14//5 25//5 22//5
f 10//6 26//6 28//6 9//6
f 11//7 12//7 21//7 18//7
f 5//8 4//8 17//8 30//8
f 10//9 8//9 29//9 26//9
f 9//10 28//10 27//10 7//10
f 16//11 22//11 24//11 15//11
f 20//12 6//12 11//12 18//12
f 29//13 8//13 1//13 31//13
f 31//14 1//14 2//14 32//14
f 32//15 2//15 5//15 30//15
f 19//16 3//16 6//16 20//16
f 17//17 4//17 3//17 19//17
f 8//18 10//18 42//18 40//18
f 5//18 2//18 34//18 37//18
f 3//18 4//18 36//18 35//18
f 4//18 5//18 37//18 36//18
f 13//18 12//18 44//18 45//18
f 11//18 6//18 38//18 43//18
f 2//18 1//18 33//18 34//18
f 7//18 14//18 46//18 39//18
f 15//18 13//18 45//18 47//18
f 14//18 16//18 48//18 46//18
f 10//18 9//18 41//18 42//18
f 9//18 7//18 39//18 41//18
f 12//18 11//18 43//18 44//18
f 16//18 15//18 47//18 48//18
f 6//18 3//18 35//18 38//18
f 1//18 8//18 40//18 33//18
f 41//16 39//16 55//16 57//16
f 44//9 43//9 59//9 60//9
f 48//15 47//15 63//15 64//15
f 38//10 35//10 51//10 54//10
f 40//7 42//7 58//7 56//7
f 37//11 34//11 50//11 53//11
f 43//6 38//6 54//6 59//6
f 35//2 36//2 52//2 51//2
f 47//14 45//14 61//14 63//14
f 46//8 48//8 64//8 62//8
f 42//12 41//12 57//12 58//12
f 36//5 37//5 53//5 52//5
f 45//13 44//13 60//13 61//13
f 33//1 40//1 56//1 49//1
f 34//4 33//4 49//4 50//4
f 39//17 46//17 62//17 55//17
f 60//18 59//18 54//18 51//18 52//18 53//18 50//18 49//18 56//18 58//18 57//18 55//18 62//18 64//18 63//18 61//18
usemtl Material.010
f 68//17 118//17 126//17 67//17
f 67//16 126//16 122//16 70//16
f 66//15 138//15 130//15 69//15
f 65//14 142//14 138//14 66//14
f 82//11 80//11 79//11 90//11
f 72//13 134//13 142//13 65//13
f 70//12 122//12 114//12 75//12
f 89//19 81//19 83//19 91//19
f 91//20 83//20 84//20 92//20
f 92//21 84//21 82//21 90//21
f 93//22 89//22 91//22 95//22
f 95//23 91//23 92//23 96//23
f 96//24 92//24 90//24 94//24
f 85//25 93//25 95//25 87//25
f 87//26 95//26 96//26 88//26
f 88//27 96//27 94//27 86//27
f 117//28 125//28 127//28 119//28
f 119//29 127//29 128//29 120//29
f 120//30 128//30 126//30 118//30
f 125//31 121//31 123//31 127//31
f 127//32 123//32 124//32 128//32
f 128//33 124//33 122//33 126//33
f 121//34 113//34 115//34 123//34
f 123//35 115//35 116//35 124//35
f 124//36 116//36 114//36 122//36
f 133//37 141//37 143//37 135//37
f 135//38 143//38 144//38 136//38
f 136//39 144//39 142//39 134//39
f 141//40 137//40 139//40 143//40
f 143//41 139//41 140//41 144//41
f 144//42 140//42 138//42 142//42
f 137//43 129//43 131//43 139//43
f 139//44 131//44 132//44 140//44
f 140//45 132//45 130//45 138//45
f 105//46 97//46 99//46 107//46
f 107//47 99//47 100//47 108//47
f 108//48 100//48 98//48 106//48
f 109//49 105//49 107//49 111//49
f 111//50 107//50 108//50 112//50
f 112//51 108//51 106//51 110//51
f 101//52 109//52 111//52 103//52
f 103//53 111//53 112//53 104//53
f 104//54 112//54 110//54 102//54
f 102//55 82//55 84//55 104//55
f 104//56 84//56 83//56 103//56
f 103//57 83//57 81//57 101//57
f 86//58 114//58 116//58 88//58
f 88//59 116//59 115//59 87//59
f 87//60 115//60 113//60 85//60
f 118//61 130//61 132//61 120//61
f 120//62 132//62 131//62 119//62
f 119//63 131//63 129//63 117//63
f 134//64 98//64 100//64 136//64
f 136//65 100//65 99//65 135//65
f 135//66 99//66 97//66 133//66
f 81//18 89//18 93//18 85//18 113//18 121//18 125//18 117//18 129//18 137//18 141//18 133//18 97//18 105//18 109//18 101//18
f 106//10 73//10 71//10 110//10
f 98//9 134//9 72//9 74//9
f 130//8 118//8 68//8 69//8
f 114//7 86//7 76//7 75//7
f 98//6 74//6 73//6 106//6
f 82//5 102//5 78//5 80//5
f 90//4 79//4 77//4 94//4
f 110//2 71//2 78//2 102//2
f 94//1 77//1 76//1 86//1
f 73//3 74//3 154//3 153//3
f 78//3 71//3 151//3 158//3
f 65//3 66//3 146//3 145//3
f 72//3 65//3 145//3 152//3
f 75//3 76//3 156//3 155//3
f 71//3 73//3 153//3 151//3
f 67//3 70//3 150//3 147//3
f 79//3 80//3 160//3 159//3
f 66//3 69//3 149//3 146//3
f 68//3 67//3 147//3 148//3
f 74//3 72//3 152//3 154//3
f 80//3 78//3 158//3 160//3
f 70//3 75//3 155//3 150//3
f 77//3 79//3 159//3 157//3
f 76//3 77//3 157//3 156//3
f 69//3 68//3 148//3 149//3
f 147//10 150//10 176//10 168//10
f 160//8 158//8 201//8 207//8
f 159//15 160//15 207//15 204//15
f 155//9 156//9 195//9 192//9
f 150//67 155//67 192//67 176//67
f 157//14 159//14 204//14 197//14
f 145//4 146//4 165//4 162//4
f 146//68 149//68 173//68 165//68
f 151//16 153//16 185//16 179//16
f 154//7 152//7 182//7 189//7
f 156//69 157//69 197//69 195//69
f 149//5 148//5 171//5 173//5
f 153//70 154//70 189//70 185//70
f 148//71 147//71 168//71 171//71
f 158//17 151//17 179//17 201//17
f 152//72 145//72 162//72 182//72
f 198//73 194//73 196//73 199//73
f 199//74 196//74 195//74 197//74
f 180//75 200//75 202//75 181//75
f 181//76 202//76 201//76 179//76
f 194//77 191//77 193//77 196//77
f 196//78 193//78 192//78 195//78
f 168//79 176//79 178//79 169//79
f 169//80 178//80 177//80 167//80
f 165//81 173//81 175//81 166//81
f 166//82 175//82 174//82 164//82
f 171//83 168//83 169//83 172//83
f 172//84 169//84 167//84 170//84
f 200//85 206//85 208//85 202//85
f 202//86 208//86 207//86 201//86
f 170//87 174//87 175//87 172//87
f 172//88 175//88 173//88 171//88
f 162//89 165//89 166//89 163//89
f 163//90 166//90 164//90 161//90
f 186//91 180//91 181//91 187//91
f 187//92 181//92 179//92 185//92
f 206//93 203//93 205//93 208//93
f 208//94 205//94 204//94 207//94
f 183//95 188//95 190//95 184//95
f 184//96 190//96 189//96 182//96
f 176//97 192//97 193//97 178//97
f 178//98 193//98 191//98 177//98
f 203//99 198//99 199//99 205//99
f 205//100 199//100 197//100 204//100
f 188//101 186//101 187//101 190//101
f 190//102 187//102 185//102 189//102
f 182//103 162//103 163//103 184//103
f 184//104 163//104 161//104 183//104
f 194//3 198//3 203//3 206//3 200//3 180//3 186//3 188//3 183//3 161//3 164//3 174//3 170//3 167//3 177//3 191//3
