# Blender v2.78 (sub 0) OBJ File: 'Rubi.blend'
# www.blender.org
mtllib Rubi.mtl
o Circle
v 0.000000 0.183858 -1.000000
v -0.587785 0.183858 -0.809017
v -0.951057 0.183858 -0.309017
v -0.951056 0.183858 0.969204
v -0.587785 0.183858 1.469204
v 0.000000 0.183858 1.660187
v 0.587785 0.183858 1.469204
v 0.951056 0.183858 0.969204
v 0.951056 0.183858 -0.309017
v 0.587785 0.183858 -0.809017
v -0.000000 0.343256 -0.734410
v -0.470418 0.343256 -0.581562
v -0.761152 0.343256 -0.181401
v -0.761152 0.343256 0.841588
v -0.470418 0.343256 1.241749
v 0.000000 0.343256 1.394597
v 0.470418 0.343256 1.241749
v 0.761152 0.343256 0.841588
v 0.761152 0.343256 -0.181401
v 0.470418 0.343256 -0.581563
v -0.000000 0.443443 -0.358874
v -0.304463 0.443443 -0.259948
v -0.492632 0.443443 -0.000956
v -0.492632 0.443443 0.661142
v -0.304463 0.443443 0.920135
v 0.000000 0.443443 1.019061
v 0.304463 0.443443 0.920134
v 0.492632 0.443443 0.661142
v 0.492632 0.443443 -0.000956
v 0.304463 0.443443 -0.259948
v 0.000000 0.000000 -1.000000
v -0.587785 0.000000 -0.809017
v -0.951057 0.000000 -0.309017
v -0.951056 0.000000 0.969204
v -0.587785 0.000000 1.469204
v 0.000000 0.000000 1.660187
v 0.587785 0.000000 1.469204
v 0.951056 0.000000 0.969204
v 0.951056 0.000000 -0.309017
v 0.587785 0.000000 -0.809017
v 0.000000 -0.183858 -1.000000
v -0.587785 -0.183858 -0.809017
v -0.951057 -0.183858 -0.309017
v -0.951056 -0.183858 0.969204
v -0.587785 -0.183858 1.469204
v 0.000000 -0.183858 1.660187
v 0.587785 -0.183858 1.469204
v 0.951056 -0.183858 0.969204
v 0.951056 -0.183858 -0.309017
v 0.587785 -0.183858 -0.809017
v -0.000000 -0.343256 -0.734410
v -0.470418 -0.343256 -0.581562
v -0.761152 -0.343256 -0.181401
v -0.761152 -0.343256 0.841588
v -0.470418 -0.343256 1.241749
v 0.000000 -0.343256 1.394597
v 0.470418 -0.343256 1.241749
v 0.761152 -0.343256 0.841588
v 0.761152 -0.343256 -0.181401
v 0.470418 -0.343256 -0.581563
v -0.000000 -0.443443 -0.358874
v -0.304463 -0.443443 -0.259948
v -0.492632 -0.443443 -0.000956
v -0.492632 -0.443443 0.661142
v -0.304463 -0.443443 0.920135
v 0.000000 -0.443443 1.019061
v 0.304463 -0.443443 0.920134
v 0.492632 -0.443443 0.661142
v 0.492632 -0.443443 -0.000956
v 0.304463 -0.443443 -0.259948
v 0.000000 0.216629 -1.064109
v -0.625298 0.216071 -0.861351
v -1.012832 0.214364 -0.329922
v -1.012832 0.214364 0.990109
v -0.625298 0.216071 1.521538
v 0.000000 0.216629 1.724296
v 0.625298 0.216071 1.521538
v 1.012832 0.214364 0.990109
v 1.012832 0.214364 -0.329923
v 0.625298 0.216071 -0.861351
v -0.000000 0.408825 -0.764151
v -0.489086 0.408260 -0.606258
v -0.794299 0.406443 -0.191014
v -0.794299 0.406443 0.851201
v -0.489086 0.408260 1.266445
v 0.000000 0.408825 1.424338
v 0.489086 0.408260 1.266445
v 0.794299 0.406443 0.851201
v 0.794299 0.406443 -0.191015
v 0.489086 0.408260 -0.606258
v -0.000000 0.514569 -0.370058
v -0.311765 0.514472 -0.269196
v -0.505847 0.514143 -0.004223
v -0.505847 0.514143 0.664410
v -0.311765 0.514472 0.929383
v 0.000000 0.514569 1.030245
v 0.311765 0.514472 0.929383
v 0.505847 0.514143 0.664410
v 0.505847 0.514143 -0.004223
v 0.311765 0.514472 -0.269196
v 0.000000 0.000000 -1.072000
v -0.630104 0.000000 -0.867266
v -1.019532 0.000000 -0.331265
v -1.019532 0.000000 0.991452
v -0.630104 0.000000 1.527453
v 0.000000 0.000000 1.732187
v 0.630104 0.000000 1.527453
v 1.019532 0.000000 0.991452
v 1.019532 0.000000 -0.331265
v 0.630103 0.000000 -0.867266
v 0.000000 -0.216629 -1.064109
v -0.625298 -0.216071 -0.861351
v -1.012832 -0.214364 -0.329922
v -1.012832 -0.214364 0.990109
v -0.625298 -0.216071 1.521538
v 0.000000 -0.216629 1.724296
v 0.625298 -0.216071 1.521538
v 1.012832 -0.214364 0.990109
v 1.012832 -0.214364 -0.329923
v 0.625298 -0.216071 -0.861351
v -0.000000 -0.408825 -0.764151
v -0.489086 -0.408260 -0.606258
v -0.794299 -0.406443 -0.191014
v -0.794299 -0.406443 0.851201
v -0.489086 -0.408260 1.266445
v 0.000000 -0.408825 1.424338
v 0.489086 -0.408260 1.266445
v 0.794299 -0.406443 0.851201
v 0.794299 -0.406443 -0.191015
v 0.489086 -0.408260 -0.606258
v -0.000000 -0.514569 -0.370058
v -0.311765 -0.514472 -0.269196
v -0.505847 -0.514143 -0.004223
v -0.505847 -0.514143 0.664410
v -0.311765 -0.514472 0.929383
v 0.000000 -0.514569 1.030245
v 0.311765 -0.514472 0.929383
v 0.505847 -0.514143 0.664410
v 0.505847 -0.514143 -0.004223
v 0.311765 -0.514472 -0.269196
vn 0.8090 0.0000 -0.5878
vn 0.3090 0.0000 0.9511
vn -1.0000 0.0000 0.0000
vn 0.3090 0.0000 -0.9511
vn 0.8090 0.0000 0.5878
vn -0.8090 0.0000 0.5878
vn -0.3090 0.0000 -0.9511
vn 1.0000 0.0000 -0.0000
vn -0.3090 0.0000 0.9511
vn -0.8090 0.0000 -0.5878
vn 0.1649 -0.8457 0.5076
vn -0.6429 -0.7659 0.0000
vn 0.1649 -0.8457 -0.5076
vn 0.4627 -0.8203 0.3361
vn -0.4627 -0.8203 0.3361
vn -0.1649 -0.8457 -0.5076
vn 0.6429 -0.7659 -0.0000
vn -0.1649 -0.8457 0.5076
vn -0.4627 -0.8203 -0.3361
vn 0.4627 -0.8203 -0.3361
vn -0.3496 -0.9369 0.0000
vn 0.0835 -0.9628 -0.2569
vn 0.2395 -0.9552 0.1740
vn -0.2395 -0.9552 0.1740
vn -0.0835 -0.9628 -0.2569
vn 0.3496 -0.9369 0.0000
vn -0.0835 -0.9628 0.2569
vn -0.2395 -0.9552 -0.1740
vn 0.2395 -0.9552 -0.1740
vn 0.0835 -0.9628 0.2569
vn 0.0000 -1.0000 -0.0000
vn 0.1649 0.8457 0.5076
vn -0.6429 0.7659 0.0000
vn 0.1649 0.8457 -0.5076
vn 0.4627 0.8203 0.3361
vn -0.4627 0.8203 0.3361
vn -0.1649 0.8457 -0.5076
vn 0.6429 0.7659 -0.0000
vn -0.1649 0.8457 0.5076
vn -0.4627 0.8203 -0.3361
vn 0.4627 0.8203 -0.3361
vn -0.3496 0.9369 0.0000
vn 0.0835 0.9628 -0.2569
vn 0.2395 0.9552 0.1740
vn -0.2395 0.9552 0.1740
vn -0.0835 0.9628 -0.2569
vn 0.3496 0.9369 0.0000
vn -0.0835 0.9628 0.2569
vn -0.2395 0.9552 -0.1740
vn 0.2395 0.9552 -0.1740
vn 0.0835 0.9628 0.2569
vn 0.0000 1.0000 -0.0000
vn -0.8081 0.0315 0.5882
vn -0.3086 0.0338 -0.9506
vn 0.9995 0.0312 0.0000
vn -0.3086 0.0338 0.9506
vn -0.8081 0.0315 -0.5882
vn 0.8081 0.0315 -0.5882
vn 0.3086 0.0338 0.9506
vn -0.9995 0.0312 0.0000
vn 0.3086 0.0338 -0.9506
vn 0.8081 0.0315 0.5882
vn -0.1729 0.8291 -0.5317
vn 0.6602 0.7511 0.0000
vn -0.1729 0.8291 0.5317
vn -0.4819 0.8034 -0.3497
vn 0.4819 0.8034 -0.3497
vn 0.1729 0.8291 0.5317
vn -0.6602 0.7511 0.0000
vn 0.1729 0.8291 -0.5317
vn 0.4819 0.8034 0.3497
vn -0.4819 0.8034 0.3497
vn 0.3498 0.9368 0.0000
vn -0.0843 0.9623 0.2585
vn -0.2420 0.9544 -0.1746
vn 0.2420 0.9544 -0.1746
vn 0.0843 0.9623 0.2585
vn -0.3498 0.9368 0.0000
vn 0.0843 0.9623 -0.2585
vn 0.2420 0.9544 0.1746
vn -0.2420 0.9544 0.1746
vn -0.0843 0.9623 -0.2585
vn -0.8081 -0.0315 0.5882
vn -0.3086 -0.0338 -0.9506
vn 0.9995 -0.0312 0.0000
vn -0.3086 -0.0338 0.9506
vn -0.8081 -0.0315 -0.5882
vn 0.8081 -0.0315 -0.5882
vn 0.3086 -0.0338 0.9506
vn -0.9995 -0.0312 0.0000
vn 0.3086 -0.0338 -0.9506
vn 0.8081 -0.0315 0.5882
vn -0.1729 -0.8291 -0.5317
vn 0.6602 -0.7511 0.0000
vn -0.1729 -0.8291 0.5317
vn -0.4819 -0.8034 -0.3497
vn 0.4819 -0.8034 -0.3497
vn 0.1729 -0.8291 0.5317
vn -0.6602 -0.7511 0.0000
vn 0.1729 -0.8291 -0.5317
vn 0.4819 -0.8034 0.3497
vn -0.4819 -0.8034 0.3497
vn 0.3498 -0.9368 0.0000
vn -0.0843 -0.9623 0.2585
vn -0.2420 -0.9544 -0.1746
vn 0.2420 -0.9544 -0.1746
vn 0.0843 -0.9623 0.2585
vn -0.3498 -0.9368 0.0000
vn 0.0843 -0.9623 -0.2585
vn 0.2420 -0.9544 0.1746
vn -0.2420 -0.9544 0.1746
vn -0.0843 -0.9623 -0.2585
usemtl Material.001
s off
f 35//1 34//1 4//1 5//1
f 32//2 31//2 1//2 2//2
f 39//3 38//3 8//3 9//3
f 36//4 35//4 5//4 6//4
f 33//5 32//5 2//5 3//5
f 40//6 39//6 9//6 10//6
f 37//7 36//7 6//7 7//7
f 34//8 33//8 3//8 4//8
f 31//9 40//9 10//9 1//9
f 38//10 37//10 7//10 8//10
f 2//11 1//11 11//11 12//11
f 9//12 8//12 18//12 19//12
f 6//13 5//13 15//13 16//13
f 3//14 2//14 12//14 13//14
f 10//15 9//15 19//15 20//15
f 7//16 6//16 16//16 17//16
f 4//17 3//17 13//17 14//17
f 1//18 10//18 20//18 11//18
f 8//19 7//19 17//19 18//19
f 5//20 4//20 14//20 15//20
f 19//21 18//21 28//21 29//21
f 16//22 15//22 25//22 26//22
f 13//23 12//23 22//23 23//23
f 20//24 19//24 29//24 30//24
f 17//25 16//25 26//25 27//25
f 14//26 13//26 23//26 24//26
f 11//27 20//27 30//27 21//27
f 18//28 17//28 27//28 28//28
f 15//29 14//29 24//29 25//29
f 12//30 11//30 21//30 22//30
f 22//31 21//31 30//31 29//31 28//31 27//31 26//31 25//31 24//31 23//31
f 35//1 45//1 44//1 34//1
f 32//2 42//2 41//2 31//2
f 39//3 49//3 48//3 38//3
f 36//4 46//4 45//4 35//4
f 33//5 43//5 42//5 32//5
f 40//6 50//6 49//6 39//6
f 37//7 47//7 46//7 36//7
f 34//8 44//8 43//8 33//8
f 31//9 41//9 50//9 40//9
f 38//10 48//10 47//10 37//10
f 42//32 52//32 51//32 41//32
f 49//33 59//33 58//33 48//33
f 46//34 56//34 55//34 45//34
f 43//35 53//35 52//35 42//35
f 50//36 60//36 59//36 49//36
f 47//37 57//37 56//37 46//37
f 44//38 54//38 53//38 43//38
f 41//39 51//39 60//39 50//39
f 48//40 58//40 57//40 47//40
f 45//41 55//41 54//41 44//41
f 59//42 69//42 68//42 58//42
f 56//43 66//43 65//43 55//43
f 53//44 63//44 62//44 52//44
f 60//45 70//45 69//45 59//45
f 57//46 67//46 66//46 56//46
f 54//47 64//47 63//47 53//47
f 51//48 61//48 70//48 60//48
f 58//49 68//49 67//49 57//49
f 55//50 65//50 64//50 54//50
f 52//51 62//51 61//51 51//51
f 62//52 63//52 64//52 65//52 66//52 67//52 68//52 69//52 70//52 61//52
f 105//53 75//53 74//53 104//53
f 102//54 72//54 71//54 101//54
f 109//55 79//55 78//55 108//55
f 106//56 76//56 75//56 105//56
f 103//57 73//57 72//57 102//57
f 110//58 80//58 79//58 109//58
f 107//59 77//59 76//59 106//59
f 104//60 74//60 73//60 103//60
f 101//61 71//61 80//61 110//61
f 108//62 78//62 77//62 107//62
f 72//63 82//63 81//63 71//63
f 79//64 89//64 88//64 78//64
f 76//65 86//65 85//65 75//65
f 73//66 83//66 82//66 72//66
f 80//67 90//67 89//67 79//67
f 77//68 87//68 86//68 76//68
f 74//69 84//69 83//69 73//69
f 71//70 81//70 90//70 80//70
f 78//71 88//71 87//71 77//71
f 75//72 85//72 84//72 74//72
f 89//73 99//73 98//73 88//73
f 86//74 96//74 95//74 85//74
f 83//75 93//75 92//75 82//75
f 90//76 100//76 99//76 89//76
f 87//77 97//77 96//77 86//77
f 84//78 94//78 93//78 83//78
f 81//79 91//79 100//79 90//79
f 88//80 98//80 97//80 87//80
f 85//81 95//81 94//81 84//81
f 82//82 92//82 91//82 81//82
f 92//52 93//52 94//52 95//52 96//52 97//52 98//52 99//52 100//52 91//52
f 105//83 104//83 114//83 115//83
f 102//84 101//84 111//84 112//84
f 109//85 108//85 118//85 119//85
f 106//86 105//86 115//86 116//86
f 103//87 102//87 112//87 113//87
f 110//88 109//88 119//88 120//88
f 107//89 106//89 116//89 117//89
f 104//90 103//90 113//90 114//90
f 101//91 110//91 120//91 111//91
f 108//92 107//92 117//92 118//92
f 112//93 111//93 121//93 122//93
f 119//94 118//94 128//94 129//94
f 116//95 115//95 125//95 126//95
f 113//96 112//96 122//96 123//96
f 120//97 119//97 129//97 130//97
f 117//98 116//98 126//98 127//98
f 114//99 113//99 123//99 124//99
f 111//100 120//100 130//100 121//100
f 118//101 117//101 127//101 128//101
f 115//102 114//102 124//102 125//102
f 129//103 128//103 138//103 139//103
f 126//104 125//104 135//104 136//104
f 123//105 122//105 132//105 133//105
f 130//106 129//106 139//106 140//106
f 127//107 126//107 136//107 137//107
f 124//108 123//108 133//108 134//108
f 121//109 130//109 140//109 131//109
f 128//110 127//110 137//110 138//110
f 125//111 124//111 134//111 135//111
f 122//112 121//112 131//112 132//112
f 132//31 131//31 140//31 139//31 138//31 137//31 136//31 135//31 134//31 133//31
