# Blender v2.78 (sub 0) OBJ File: 'General.blend'
# www.blender.org
mtllib banio.mtl
o Plane.010_Plane.036
v -1.519572 -0.007174 17.803364
v -1.519572 -0.007174 14.026783
v -1.519572 5.472589 17.803364
v -1.519572 5.472589 14.026783
v -1.519572 6.207111 17.803364
v -1.519572 6.207111 14.026783
v -1.519572 5.472589 12.084387
v -1.519572 6.207111 12.084387
v -1.799572 -0.007174 17.803364
v -1.799572 -0.007174 14.026783
v -1.799572 5.472589 17.803364
v -1.799572 5.472589 14.026783
v -1.799572 6.207111 17.803364
v -1.799572 6.207111 14.026783
v -1.799572 5.472589 12.084387
v -1.799572 6.207111 12.084387
vt -10.2125 7.0299
vt -10.2125 15.6103
vt -15.4514 15.6103
vt -15.4514 7.0299
vt -10.2125 16.7604
vt -15.4514 16.7604
vt -7.5180 15.6103
vt -7.5180 16.7604
vt -10.2125 7.0299
vt -15.4514 7.0299
vt -15.4514 15.6103
vt -10.2125 15.6103
vt -15.4514 16.7604
vt -10.2125 16.7604
vt -7.5180 16.7604
vt -7.5180 15.6103
vn 1.0000 0.0000 0.0000
vn -1.0000 0.0000 0.0000
vn 0.0000 -1.0000 0.0000
vn 0.0000 0.0000 1.0000
vn 0.0000 0.0000 -1.0000
vn 0.0000 1.0000 0.0000
usemtl Material.001
s off
f 2/1/1 4/2/1 3/3/1 1/4/1
f 3/3/1 4/2/1 6/5/1 5/6/1
f 4/2/1 7/7/1 8/8/1 6/5/1
f 10/9/2 9/10/2 11/11/2 12/12/2
f 11/11/2 13/13/2 14/14/2 12/12/2
f 12/12/2 14/14/2 16/15/2 15/16/2
f 2/1/3 1/4/3 9/10/3 10/9/3
f 1/4/4 3/3/4 11/11/4 9/10/4
f 4/2/5 2/1/5 10/9/5 12/12/5
f 5/6/6 6/5/6 14/14/6 13/13/6
f 3/3/4 5/6/4 13/13/4 11/11/4
f 8/8/5 7/7/5 15/16/5 16/15/5
f 6/5/6 8/8/6 16/15/6 14/14/6
f 7/7/3 4/2/3 12/12/3 15/16/3
o Plane.008_Plane.033
v -5.274589 -0.028877 11.986734
v 9.541374 -0.028877 12.021643
v -5.274589 6.241852 11.986734
v 9.541374 6.241852 12.021643
v 2.620712 5.522819 12.005337
v 0.445649 5.522819 12.000212
v 0.445649 -0.028877 12.000212
v 2.620713 -0.028877 12.005337
v -5.274671 -0.028877 12.079887
v 9.541293 -0.028877 12.114796
v -5.274671 6.241852 12.079887
v 9.541293 6.241852 12.114796
v 2.620631 5.522819 12.098490
v 0.445568 5.522819 12.093365
v 0.445568 -0.028877 12.093365
v 2.620631 -0.028877 12.098490
vt -12.6666 6.5226
vt 13.9535 6.4981
vt 13.8974 -5.1304
vt 3.6198 -5.1210
vt 3.6694 5.1742
vt -0.2386 5.1778
vt -0.2882 -5.1174
vt -12.7227 -5.1060
vt 0.0011 1.0011
vt -0.0011 0.0011
vt 0.4661 0.0001
vt 0.4679 0.8854
vt 0.6147 0.8851
vt 0.6129 -0.0002
vt 0.9989 -0.0011
vt 1.0011 0.9989
vt -0.0011 0.0011
vt 0.4661 0.0001
vt 1.0011 0.9989
vt 0.0011 1.0011
vt 0.9989 -0.0011
vt 0.4679 0.8854
vt 0.6147 0.8851
vt 0.6129 -0.0002
vn -0.0024 -0.0000 1.0000
vn 0.0024 0.0000 -1.0000
vn 0.0000 -1.0000 0.0000
vn 0.0000 1.0000 0.0000
vn -1.0000 0.0000 -0.0009
vn 1.0000 0.0000 0.0009
usemtl Banio
s off
f 28/17/7 27/18/7 25/19/7 31/20/7 30/21/7 29/22/7 32/23/7 26/24/7
usemtl Banio_TexturaDepar.png
f 20/25/8 18/26/8 24/27/8 21/28/8 22/29/8 23/30/8 17/31/8 19/32/8
f 24/27/9 18/26/9 26/33/9 32/34/9
f 20/25/10 19/32/10 27/35/10 28/36/10
f 19/32/11 17/31/11 25/37/11 27/35/11
f 18/26/12 20/25/12 28/36/12 26/33/12
f 21/28/11 24/27/11 32/34/11 29/38/11
f 23/30/12 22/29/12 30/39/12 31/40/12
f 22/29/9 21/28/9 29/38/9 30/39/9
f 17/31/9 23/30/9 31/40/9 25/37/9
o Plane.007_Plane.022
v 3.938091 -0.007174 17.803364
v 3.938091 -0.007174 14.026783
v 3.938091 5.472589 17.803364
v 3.938091 5.472589 14.026783
v 3.938091 6.207111 17.803364
v 3.938091 6.207111 14.026783
v 3.938091 5.472589 12.084387
v 3.938091 6.207111 12.084387
v 3.658091 -0.007174 17.803364
v 3.658091 -0.007174 14.026783
v 3.658091 5.472589 17.803364
v 3.658091 5.472589 14.026783
v 3.658091 6.207111 17.803364
v 3.658091 6.207111 14.026783
v 3.658091 5.472589 12.084387
v 3.658091 6.207111 12.084387
vt -10.2125 7.0299
vt -10.2125 15.6103
vt -15.4514 15.6103
vt -15.4514 7.0299
vt -10.2125 16.7604
vt -15.4514 16.7604
vt -7.5180 15.6103
vt -7.5180 16.7604
vt -10.2125 7.0299
vt -15.4514 7.0299
vt -15.4514 15.6103
vt -10.2125 15.6103
vt -15.4514 16.7604
vt -10.2125 16.7604
vt -7.5180 16.7604
vt -7.5180 15.6103
vn 1.0000 0.0000 0.0000
vn -1.0000 0.0000 0.0000
vn 0.0000 -1.0000 0.0000
vn 0.0000 0.0000 1.0000
vn 0.0000 0.0000 -1.0000
vn 0.0000 1.0000 0.0000
usemtl Material.001
s off
f 34/41/13 36/42/13 35/43/13 33/44/13
f 35/43/13 36/42/13 38/45/13 37/46/13
f 36/42/13 39/47/13 40/48/13 38/45/13
f 42/49/14 41/50/14 43/51/14 44/52/14
f 43/51/14 45/53/14 46/54/14 44/52/14
f 44/52/14 46/54/14 48/55/14 47/56/14
f 34/41/15 33/44/15 41/50/15 42/49/15
f 33/44/16 35/43/16 43/51/16 41/50/16
f 36/42/17 34/41/17 42/49/17 44/52/17
f 37/46/18 38/45/18 46/54/18 45/53/18
f 35/43/16 37/46/16 45/53/16 43/51/16
f 40/48/17 39/47/17 47/56/17 48/55/17
f 38/45/18 40/48/18 48/55/18 46/54/18
f 39/47/15 36/42/15 44/52/15 47/56/15
o Plane.006_Plane.020
v -5.437805 -0.007457 17.824947
v -5.437805 6.195338 17.824947
v -5.437805 -0.007457 12.164748
v -5.437805 6.195338 12.164748
v 9.725039 -0.007460 17.824947
v 9.725039 6.195335 17.824947
v 9.725039 -0.007460 12.164748
v 9.725039 6.195335 12.164748
v -5.133759 -0.007457 17.520901
v -5.133759 6.195338 17.520901
v -5.144247 -0.007457 12.164748
v -5.144247 6.195338 12.164748
v 9.420992 -0.007460 17.520901
v 9.420992 6.195335 17.520901
v 9.431479 -0.007460 12.164748
v 9.431479 6.195335 12.164748
vt 0.0042 0.5053
vt 0.0042 0.5070
vt 0.0028 0.5070
vt 0.0028 0.5053
vt 0.0042 0.5029
vt 0.0042 0.5012
vt 0.0057 0.5012
vt 0.0057 0.5029
vt 0.0088 0.5070
vt 0.0072 0.5070
vt 0.0072 0.5029
vt 0.0088 0.5029
vt 16.4318 5.9204
vt 9.0017 5.9204
vt 9.0017 -3.7922
vt 16.4318 -3.7922
vt 0.5832 15.7156
vt -6.8469 15.7156
vt -6.8469 6.0031
vt 0.5832 6.0031
vt -6.8469 -15.7604
vt -6.8469 7.0299
vt -15.4514 7.0299
vt -15.4514 -15.7604
vt 0.0072 0.5070
vt 0.0057 0.5070
vt 0.0057 0.5069
vt 0.0071 0.5069
vt 0.0042 0.5029
vt 0.0057 0.5029
vt 0.0056 0.5030
vt 0.0042 0.5030
vt 0.0042 0.5036
vt 0.0042 0.5053
vt 0.0041 0.5053
vt 0.0041 0.5036
vt 0.0042 0.5036
vt 0.0042 0.5053
vt 0.0042 0.5053
vt 0.0042 0.5036
vt 0.0057 0.5029
vt 0.0072 0.5029
vt 0.0071 0.5030
vt 0.0057 0.5030
vt 0.0057 0.5070
vt 0.0042 0.5070
vt 0.0042 0.5069
vt 0.0056 0.5069
vn -1.0000 0.0000 0.0000
vn 1.0000 0.0000 0.0000
vn -0.0000 0.0000 1.0000
vn 1.0000 0.0000 -0.0020
vn -1.0000 0.0000 -0.0020
vn 0.0000 0.0000 -1.0000
vn 0.0000 -1.0000 0.0000
vn 0.0000 1.0000 0.0000
usemtl Material.001
s off
f 49/57/19 50/58/19 52/59/19 51/60/19
f 55/61/20 56/62/20 54/63/20 53/64/20
f 53/65/21 54/66/21 50/67/21 49/68/21
f 57/69/22 59/70/22 60/71/22 58/72/22
f 63/73/23 61/74/23 62/75/23 64/76/23
f 61/77/24 57/78/24 58/79/24 62/80/24
f 49/81/25 51/82/25 59/83/25 57/84/25
f 52/85/26 50/86/26 58/87/26 60/88/26
f 51/89/24 52/90/24 60/91/24 59/92/24
f 56/93/24 55/94/24 63/95/24 64/96/24
f 55/97/25 53/98/25 61/99/25 63/100/25
f 54/101/26 56/102/26 64/103/26 62/104/26
f 53/98/25 49/81/25 57/84/25 61/99/25
f 50/86/26 54/101/26 62/104/26 58/87/26
