# Blender v2.78 (sub 0) OBJ File: 'General.blend'
# www.blender.org
mtllib BocetoCocina.mtl
o Plane
v 7.845938 -0.009751 4.419224
v 9.510316 -0.009751 4.419224
v 7.845938 -0.009751 -5.032892
v 9.510316 -0.009751 -5.032892
v 7.845938 2.114779 -5.032892
v 7.845938 2.114779 4.419224
v 9.510316 2.114779 4.419224
v 9.510316 2.114779 -5.032892
v 4.023947 -0.009751 4.419224
v 2.120757 -0.009751 -5.032892
v 2.120757 2.114779 -5.032892
v 4.023947 2.114779 4.419224
v 7.845938 6.237292 -5.032892
v 7.845938 6.237292 4.419224
v 9.510316 6.237292 4.419224
v 9.510316 6.237292 -5.032892
v 2.120757 6.237292 -5.032892
v 4.023947 6.237292 4.419224
vn 0.0000 -1.0000 0.0000
vn 0.0000 1.0000 0.0000
vn 1.0000 0.0000 0.0000
vn -1.0000 0.0000 0.0000
vn 0.0000 0.0000 -1.0000
vn 0.0000 0.0000 1.0000
usemtl None
s off
f 1//1 3//1 4//1 2//1
f 6//2 7//2 8//2 5//2
f 2//3 4//3 8//3 7//3
f 3//4 1//4 6//4 5//4
f 4//5 3//5 5//5 8//5
f 1//6 2//6 7//6 6//6
f 5//5 3//5 10//5 11//5
f 1//6 6//6 12//6 9//6
f 12//6 6//6 14//6 18//6
f 8//5 5//5 13//5 16//5
f 6//6 7//6 15//6 14//6
f 5//5 11//5 17//5 13//5
f 16//4 4//4 2//4 15//4
