# Blender v2.78 (sub 0) OBJ File: 'Consola.blend'
# www.blender.org
mtllib Trono.mtl
o Plane.012
v -2.301865 0.000000 -3.012070
v 0.752384 0.000000 -3.012070
v -2.301865 0.000000 -5.638286
v 0.752384 0.000000 -5.638286
v -2.301865 0.225903 -5.638286
v -2.301865 0.225903 -3.012070
v 0.752384 0.225903 -3.012070
v 0.752384 0.225903 -5.638286
v -2.103137 0.225903 -5.464258
v -2.103137 0.225903 -3.338222
v 0.535334 0.225903 -3.338222
v 0.535334 0.225903 -5.464258
v -2.103137 0.447418 -5.464258
v -2.103137 0.447418 -3.338222
v 0.535334 0.447418 -3.338222
v 0.535334 0.447418 -5.464258
v -1.638647 0.460111 -5.208320
v -1.638647 0.460111 -3.808861
v 0.089584 0.460111 -3.808861
v 0.089584 0.460111 -5.208320
v -1.638647 0.679441 -5.208320
v -1.638647 0.679441 -3.808861
v 0.089584 0.679441 -3.808861
v 0.089584 0.679441 -5.208320
v 0.364548 3.353904 -5.464258
v -1.913612 3.353904 -5.464258
v 0.189600 3.161429 -5.289310
v -1.738663 3.161429 -5.289310
vn 0.0000 -1.0000 0.0000
vn 0.0000 1.0000 0.0000
vn -1.0000 0.0000 0.0000
vn 0.0000 0.0000 -1.0000
vn 0.0000 0.0000 1.0000
vn 1.0000 0.0000 0.0000
vn 0.0285 0.9996 0.0000
vn -0.0273 0.9996 0.0000
vn 0.0000 0.9996 0.0270
vn 0.0000 0.6726 0.7400
vn 0.5664 0.0190 0.8239
vn -0.5547 0.0209 0.8318
vn 0.0000 0.0300 0.9996
usemtl None
s off
f 1//1 3//1 4//1 2//1
f 8//2 5//2 9//2 12//2
f 3//3 1//3 6//3 5//3
f 4//4 3//4 5//4 8//4
f 1//5 2//5 7//5 6//5
f 2//6 4//6 8//6 7//6
f 11//6 12//6 16//6 15//6
f 6//2 7//2 11//2 10//2
f 7//2 8//2 12//2 11//2
f 5//2 6//2 10//2 9//2
f 15//7 16//7 20//7 19//7
f 9//3 10//3 14//3 13//3
f 12//4 9//4 13//4 16//4
f 10//5 11//5 15//5 14//5
f 20//4 17//4 21//4 24//4
f 13//8 14//8 18//8 17//8
f 16//4 13//4 26//4 25//4
f 14//9 15//9 19//9 18//9
f 22//2 23//2 24//2 21//2
f 18//5 19//5 23//5 22//5
f 19//6 20//6 24//6 23//6
f 17//3 18//3 22//3 21//3
f 25//10 26//10 28//10 27//10
f 20//11 16//11 25//11 27//11
f 13//12 17//12 28//12 26//12
f 17//13 20//13 27//13 28//13
o Plane.011
v -0.948007 0.988188 -4.916641
v -0.886289 0.938756 -4.916641
v -0.700729 0.938756 -5.130532
v -0.515169 0.938756 -4.916641
v -0.700729 0.938756 -4.702750
v -0.873429 0.977842 -4.717574
v -0.873429 0.977842 -5.115707
v -0.528029 0.977842 -5.115707
v -0.528029 0.977842 -4.717574
v -0.700729 2.133327 -4.916641
v -0.700729 2.091798 -4.702750
v -0.515169 2.091798 -4.916641
v -0.700729 2.091798 -5.130532
v -0.886289 2.091798 -4.916641
v -0.873429 2.052712 -4.717574
v -0.528029 2.052712 -4.717574
v -0.528029 2.052712 -5.115707
v -0.873429 2.052712 -5.115707
v -0.700729 1.268545 -4.416857
v -0.873429 1.285645 -4.450740
v -0.528029 1.285645 -4.450740
v -0.235909 1.515277 -4.916641
v -0.267142 1.268545 -4.916641
v -0.267142 1.515277 -5.130532
v -0.267142 1.762008 -4.916641
v -0.267142 1.515277 -4.702750
v -0.296538 1.285645 -4.717574
v -0.296538 1.285645 -5.115707
v -0.296538 1.744908 -5.115707
v -0.296538 1.744908 -4.717574
v -1.165549 1.515277 -4.916641
v -1.134316 1.268545 -4.916641
v -1.134316 1.515277 -4.702750
v -1.134316 1.762008 -4.916641
v -1.134316 1.515277 -5.130532
v -1.104920 1.285645 -5.115707
v -1.104920 1.285645 -4.717574
v -1.104920 1.744908 -4.717574
v -1.104920 1.744908 -5.115707
v -1.017652 1.093879 -5.100883
v -1.041076 1.062732 -4.916641
v -1.017652 1.093879 -4.732399
v -0.860568 1.093879 -4.551332
v -0.700729 1.062732 -4.524332
v -0.540890 1.093879 -4.551332
v -0.383807 1.093879 -4.732399
v -0.360382 1.062732 -4.916641
v -0.383807 1.093879 -5.100883
v -1.017652 1.936675 -5.100883
v -1.041076 1.967822 -4.916641
v -1.017652 1.936675 -4.732399
v -0.383807 1.936675 -4.732399
v -0.360382 1.967822 -4.916641
v -0.383807 1.936675 -5.100883
v -0.383807 1.302746 -4.551332
v -1.017652 1.302746 -4.551332
v -0.970190 1.156987 -4.606040
v -0.431268 1.156987 -4.606040
v -0.700729 0.673662 -4.916641
v -0.968853 0.684538 -4.916641
v -0.950270 0.689584 -4.629002
v -0.700729 0.684538 -4.607582
v -0.700729 0.684538 -5.225700
v -0.950270 0.689584 -5.204280
v -0.432605 0.684538 -4.916641
v -0.451188 0.689584 -5.204280
v -0.451188 0.689584 -4.629002
v -0.930934 1.024109 -4.723485
v -0.930934 1.024109 -5.109797
v -0.930934 2.006445 -4.723485
v -0.948007 2.042366 -4.916641
v -0.930934 2.006445 -5.109797
v -0.930934 1.292464 -4.490849
v -0.904277 1.119042 -4.573146
v -0.451249 0.989952 -4.916641
v -0.468472 1.025759 -5.109586
v -0.468472 1.025759 -4.723696
v -0.451249 2.040602 -4.916641
v -0.468472 2.004794 -4.723696
v -0.468472 2.004794 -5.109586
v -0.468472 1.292707 -4.492280
v -0.495622 1.119939 -4.573924
v -0.258174 1.515277 -4.465342
v -0.282622 1.285645 -4.480166
v -1.114187 1.515277 -4.465342
v -1.089739 1.285645 -4.480166
v -0.469979 1.515277 -4.702750
v -0.486345 1.285645 -4.717574
v -0.934004 1.515277 -4.702750
v -0.917637 1.285645 -4.717574
v -0.510611 1.515277 -4.465342
v -0.524223 1.285645 -4.480166
v -0.893372 1.515277 -4.465342
v -0.879760 1.285645 -4.480166
v -0.258174 1.500736 -4.240099
v -0.282622 1.271105 -4.254923
v -1.114187 1.500736 -4.240099
v -1.089739 1.271105 -4.254923
v -0.510611 1.500736 -4.240099
v -0.524223 1.271105 -4.254923
v -0.893372 1.500736 -4.240099
v -0.879760 1.271105 -4.254923
v -0.524223 0.676289 -4.519504
v -0.282622 0.676289 -4.519504
v -0.879760 0.676289 -4.519504
v -1.089739 0.676289 -4.519504
v -0.524223 0.661748 -4.294261
v -0.282622 0.661748 -4.294261
v -0.879760 0.661748 -4.294261
v -1.089739 0.661748 -4.294261
vn -0.0469 0.3264 -0.9441
vn -0.6192 -0.7590 0.2013
vn -0.2380 -0.7929 0.5610
vn -0.5840 -0.6276 0.5149
vn 0.9572 0.2871 0.0358
vn -0.6192 -0.7590 -0.2013
vn -0.0469 0.3264 0.9441
vn 0.6192 -0.7590 -0.2015
vn 0.9572 0.2871 -0.0358
vn 0.2380 -0.7929 0.5610
vn 0.6192 -0.7590 0.2015
vn 0.5839 -0.6274 0.5152
vn -0.2230 0.9554 0.1935
vn -0.6192 0.7590 0.2013
vn 0.2230 0.9554 0.1935
vn 0.6192 0.7590 0.2015
vn 0.2230 0.9554 -0.1935
vn 0.6192 0.7590 -0.2015
vn 0.0000 0.0000 -1.0000
vn -0.2230 0.9554 -0.1935
vn -0.6192 0.7590 -0.2013
vn -0.2239 -0.4576 0.8605
vn -0.5660 -0.4327 0.7017
vn 0.2239 -0.4576 0.8605
vn 0.5660 -0.4329 0.7016
vn 0.9803 -0.1294 0.1493
vn 0.8940 -0.4124 0.1751
vn 0.7811 -0.4090 0.4718
vn 0.9803 -0.1294 -0.1493
vn 0.8940 -0.4124 -0.1751
vn 0.9803 0.1294 -0.1493
vn 0.8940 0.4124 -0.1751
vn 0.9803 0.1294 0.1493
vn 0.8940 0.4124 0.1751
vn -0.9803 -0.1294 -0.1493
vn -0.8940 -0.4124 -0.1751
vn -0.9803 -0.1294 0.1493
vn 0.0000 1.0000 -0.0057
vn -0.8940 -0.4124 0.1751
vn -0.7811 -0.4090 0.4718
vn -0.9803 0.1294 0.1493
vn -0.8940 0.4124 0.1751
vn 0.0000 0.0015 1.0000
vn -0.9803 0.1294 -0.1493
vn -0.8940 0.4124 -0.1751
vn -0.0319 -0.9991 0.0277
vn -0.0319 -0.9991 -0.0277
vn 0.0319 -0.9991 -0.0277
vn 0.0319 -0.9991 0.0277
vn 0.0469 0.3264 -0.9441
vn -0.9572 0.2871 0.0358
vn 0.0469 0.3264 0.9441
vn -0.9572 0.2871 -0.0358
vn -0.5666 -0.4172 0.7106
vn -0.6200 0.7605 -0.1928
vn -0.6200 0.7605 0.1928
vn -0.6200 -0.7605 -0.1928
vn -0.5868 -0.6381 0.4985
vn -0.6200 -0.7605 0.1928
vn 0.5666 -0.4174 0.7105
vn 0.6200 0.7605 -0.1929
vn 0.6200 0.7605 0.1929
vn 0.5868 -0.6379 0.4987
vn 0.6200 -0.7605 0.1929
vn 0.6200 -0.7605 -0.1929
vn 0.0000 1.0000 0.0000
vn 0.0000 0.9979 0.0644
vn 0.9838 0.0747 -0.1627
vn -0.9838 0.0747 -0.1627
vn 0.0000 -1.0000 0.0000
vn 0.0000 0.0644 -0.9979
vn -0.9899 -0.1208 0.0736
vn 0.9924 -0.1133 -0.0478
vn 0.0000 -0.0644 0.9979
vn 0.9944 -0.1054 -0.0068
vn -1.0000 0.0000 0.0000
vn -0.9983 0.0589 0.0038
vn -0.9944 -0.1054 -0.0068
vn 0.9983 0.0589 0.0038
vn 0.0000 -0.9979 -0.0644
vn 1.0000 0.0000 0.0000
usemtl None
s off
f 35//14 31//14 91//14 92//14
f 29//15 96//15 70//15 69//15
f 33//16 72//16 71//16 34//16
f 96//17 102//17 85//17 70//17
f 32//18 37//18 95//18 93//18
f 29//19 69//19 68//19 97//19
f 33//20 34//20 89//20 90//20
f 103//21 104//21 76//21 75//21
f 36//22 32//22 93//22 94//22
f 33//23 37//23 73//23 72//23
f 103//24 75//24 74//24 105//24
f 105//25 74//25 86//25 110//25
f 38//26 42//26 43//26 39//26
f 99//27 78//27 79//27 98//27
f 38//28 39//28 44//28 40//28
f 106//29 107//29 80//29 81//29
f 38//30 40//30 45//30 41//30
f 106//31 81//31 82//31 108//31
f 31//32 35//32 97//32 68//32 64//32 63//32 67//32 77//32 100//32 46//32 41//32 45//32 108//32 82//32 57//32 52//32 56//32 76//32 104//32 36//32
f 38//33 41//33 46//33 42//33
f 99//34 100//34 77//34 78//34
f 47//35 48//35 71//35 72//35
f 101//36 84//36 85//36 102//36
f 47//37 72//37 73//37 49//37
f 109//38 110//38 86//38 83//38
f 50//39 54//39 55//39 51//39
f 51//40 55//40 74//40 75//40
f 55//41 83//41 86//41 74//41
f 50//42 51//42 56//42 52//42
f 51//43 75//43 76//43 56//43
f 50//44 52//44 57//44 53//44
f 53//45 57//45 82//45 81//45
f 50//46 53//46 58//46 54//46
f 53//47 81//47 80//47 58//47
f 59//48 63//48 64//48 60//48
f 60//49 64//49 68//49 69//49
f 59//50 60//50 65//50 61//50
f 48//51 47//51 49//51 109//51 83//51 55//51 65//51 84//51 101//51
f 60//52 69//52 70//52 65//52
f 65//53 70//53 85//53 84//53
f 59//54 61//54 66//54 62//54
f 62//55 66//55 79//55 78//55
f 43//56 98//56 79//56 66//56 61//56 65//56 55//56 54//56 58//56 80//56 107//56 44//56 39//56
f 59//57 62//57 67//57 63//57
f 62//58 78//58 77//58 67//58
f 87//59 90//59 89//59 88//59
f 87//60 88//60 92//60 91//60
f 87//61 91//61 94//61 93//61
f 87//62 93//62 95//62 90//62
f 31//63 36//63 94//63 91//63
f 34//64 30//64 88//64 89//64
f 37//65 33//65 90//65 95//65
f 30//66 35//66 92//66 88//66
f 48//67 101//67 102//67 71//67
f 42//68 46//68 100//68 99//68
f 42//69 99//69 98//69 43//69
f 30//70 29//70 97//70 35//70
f 34//71 71//71 102//71 96//71
f 30//72 34//72 96//72 29//72
f 49//73 73//73 110//73 109//73
f 40//74 106//74 108//74 45//74
f 40//75 44//75 107//75 106//75
f 37//76 105//76 110//76 73//76
f 32//77 103//77 105//77 37//77
f 32//78 36//78 104//78 103//78
f 55//79 65//79 114//79 112//79
f 61//79 113//79 121//79 117//79
f 111//80 119//80 127//80 123//80
f 118//81 117//81 121//81 122//81
f 115//82 116//82 120//82 119//82
f 114//83 65//83 118//83 122//83
f 65//84 61//84 117//84 118//84
f 121//80 113//80 125//80 129//80
f 54//84 55//84 116//84 115//84
f 111//79 54//79 115//79 119//79
f 55//83 112//83 120//83 116//83
f 113//85 61//85 65//85 114//85
f 54//86 111//86 112//86 55//86
f 124//87 123//87 127//87 128//87
f 125//87 126//87 130//87 129//87
f 112//88 111//88 123//88 124//88
f 126//89 114//89 134//89 138//89
f 119//90 120//90 128//90 127//90
f 124//87 128//87 135//87 136//87
f 113//91 114//91 126//91 125//91
f 122//92 121//92 129//92 130//92
f 134//93 133//93 137//93 138//93
f 131//93 132//93 136//93 135//93
f 112//94 124//94 136//94 132//94
f 114//84 122//84 133//84 134//84
f 128//89 120//89 131//89 135//89
f 120//84 112//84 132//84 131//84
f 122//94 130//94 137//94 133//94
f 130//87 126//87 138//87 137//87
