# Blender v2.78 (sub 0) OBJ File: 'camasencilla.blend'
# www.blender.org
mtllib camabordes.mtl
o Cube.001_Cube.002
v -1.873943 0.813869 -3.643478
v -1.873943 0.991493 -3.643478
v -1.873943 0.813869 4.126382
v -1.873943 0.991493 4.126382
v -2.088953 0.813869 -3.643478
v -2.088953 0.991493 -3.643478
v -2.088953 0.813869 4.126382
v -2.088953 0.991493 4.126382
v 1.873943 0.813869 -3.643478
v 1.873943 0.991493 -3.643478
v 1.873943 0.813869 4.126382
v 1.873943 0.991493 4.126382
v 2.088953 0.813869 -3.643478
v 2.088953 0.991493 -3.643478
v 2.088953 0.813869 4.126382
v 2.088953 0.991493 4.126382
v -2.192386 0.647524 -4.013941
v -2.192386 1.582810 -4.013941
v -2.192386 0.647524 -4.194627
v -2.192386 1.582810 -4.194627
v 2.192386 0.647524 -4.013941
v 2.192386 1.582810 -4.013941
v 2.192386 0.647524 -4.194627
v 2.192386 1.582810 -4.194627
v -2.192386 0.647524 4.287890
v -2.192386 1.582810 4.287890
v -2.192386 0.647524 4.468575
v -2.192386 1.582810 4.468575
v 2.192386 0.647524 4.287890
v 2.192386 1.582810 4.287890
v 2.192386 0.647524 4.468575
v 2.192386 1.582810 4.468575
v 2.076663 0.682326 4.393982
v 2.076663 1.474435 4.393982
v 2.076663 0.682326 -4.120032
v 2.076663 1.474435 -4.120032
v 2.260966 0.682326 4.393982
v 2.260966 1.474435 4.393982
v 2.260966 0.682326 -4.120032
v 2.260966 1.474435 -4.120032
v -2.076663 0.682326 4.393982
v -2.076663 1.474435 4.393982
v -2.076663 0.682326 -4.120032
v -2.076663 1.474435 -4.120032
v -2.260966 0.682326 4.393982
v -2.260966 1.474435 4.393982
v -2.260966 0.682326 -4.120032
v -2.260966 1.474435 -4.120032
v 2.348313 -0.004571 -4.264192
v 2.348313 -0.004571 -3.941465
v 2.003944 -0.004571 -3.941465
v 2.003945 -0.004571 -4.264192
v 2.348313 2.941158 -4.264192
v 2.348313 2.941158 -3.941465
v 2.003944 2.941158 -3.941465
v 2.003944 2.941158 -4.264192
v 2.348313 -0.004571 4.538140
v 2.348313 -0.004571 4.215414
v 2.003944 -0.004571 4.215414
v 2.003945 -0.004571 4.538140
v 2.348313 1.759022 4.538140
v 2.348313 1.759022 4.215414
v 2.003944 1.759022 4.215414
v 2.003944 1.759022 4.538140
v -2.348313 -0.004571 -4.264192
v -2.348313 -0.004571 -3.941465
v -2.003944 -0.004571 -3.941465
v -2.003945 -0.004571 -4.264192
v -2.348313 2.941158 -4.264192
v -2.348313 2.941158 -3.941465
v -2.003944 2.941158 -3.941465
v -2.003944 2.941158 -4.264192
v -2.348313 -0.004571 4.538140
v -2.348313 -0.004571 4.215414
v -2.003944 -0.004571 4.215414
v -2.003945 -0.004571 4.538140
v -2.348313 1.759022 4.538140
v -2.348313 1.759022 4.215414
v -2.003944 1.759022 4.215414
v -2.003944 1.759022 4.538140
v -2.192386 2.238279 -4.013941
v -2.192386 2.739087 -4.013941
v -2.192386 2.238279 -4.194627
v -2.192386 2.739087 -4.194627
v 2.192386 2.238279 -4.013941
v 2.192386 2.739087 -4.013941
v 2.192386 2.238279 -4.194627
v 2.192386 2.739087 -4.194627
vn -1.0000 0.0000 0.0000
vn 0.0000 0.0000 -1.0000
vn 1.0000 0.0000 0.0000
vn 0.0000 0.0000 1.0000
vn 0.0000 1.0000 0.0000
vn 0.0000 -1.0000 0.0000
usemtl Material
s off
f 1//1 3//1 4//1 2//1
f 3//2 7//2 8//2 4//2
f 7//3 5//3 6//3 8//3
f 5//4 1//4 2//4 6//4
f 3//5 1//5 5//5 7//5
f 8//6 6//6 2//6 4//6
f 9//3 10//3 12//3 11//3
f 11//2 12//2 16//2 15//2
f 15//1 16//1 14//1 13//1
f 13//4 14//4 10//4 9//4
f 11//5 15//5 13//5 9//5
f 16//6 12//6 10//6 14//6
f 17//1 18//1 20//1 19//1
f 19//2 20//2 24//2 23//2
f 23//3 24//3 22//3 21//3
f 21//4 22//4 18//4 17//4
f 19//6 23//6 21//6 17//6
f 24//5 20//5 18//5 22//5
f 25//1 27//1 28//1 26//1
f 27//4 31//4 32//4 28//4
f 31//3 29//3 30//3 32//3
f 29//2 25//2 26//2 30//2
f 27//6 25//6 29//6 31//6
f 32//5 30//5 26//5 28//5
f 33//1 34//1 36//1 35//1
f 35//2 36//2 40//2 39//2
f 39//3 40//3 38//3 37//3
f 37//4 38//4 34//4 33//4
f 35//6 39//6 37//6 33//6
f 40//5 36//5 34//5 38//5
f 41//3 43//3 44//3 42//3
f 43//2 47//2 48//2 44//2
f 47//1 45//1 46//1 48//1
f 45//4 41//4 42//4 46//4
f 43//6 41//6 45//6 47//6
f 48//5 46//5 42//5 44//5
f 49//6 50//6 51//6 52//6
f 53//5 56//5 55//5 54//5
f 49//3 53//3 54//3 50//3
f 50//4 54//4 55//4 51//4
f 51//1 55//1 56//1 52//1
f 53//2 49//2 52//2 56//2
f 57//6 60//6 59//6 58//6
f 61//5 62//5 63//5 64//5
f 57//3 58//3 62//3 61//3
f 58//2 59//2 63//2 62//2
f 59//1 60//1 64//1 63//1
f 61//4 64//4 60//4 57//4
f 65//6 68//6 67//6 66//6
f 69//5 70//5 71//5 72//5
f 65//1 66//1 70//1 69//1
f 66//4 67//4 71//4 70//4
f 67//3 68//3 72//3 71//3
f 69//2 72//2 68//2 65//2
f 73//6 74//6 75//6 76//6
f 77//5 80//5 79//5 78//5
f 73//1 77//1 78//1 74//1
f 74//2 78//2 79//2 75//2
f 75//3 79//3 80//3 76//3
f 77//4 73//4 76//4 80//4
f 81//1 82//1 84//1 83//1
f 83//2 84//2 88//2 87//2
f 87//3 88//3 86//3 85//3
f 85//4 86//4 82//4 81//4
f 83//6 87//6 85//6 81//6
f 88//5 84//5 82//5 86//5
