# Blender v2.78 (sub 0) OBJ File: 'barrio.blend'
# www.blender.org
mtllib suelo.mtl
o Plane.006_Plane.008
v 18.600311 0.393393 5.165524
v 18.600311 0.393393 -1.775970
v 10.909557 0.393393 5.165524
v 10.909557 0.393393 -1.775970
v 10.909557 0.633698 5.165524
v 10.909557 0.633698 -1.775970
v 18.600311 0.633698 5.165524
v 18.600311 0.633698 -1.775970
vt 0.0000 0.0000
vt 0.0000 0.0000
vt 0.0000 0.0000
vt 0.0000 0.0000
vt 0.0000 0.0000
vt 0.0000 0.0000
vt 0.0000 0.0000
vt 0.0000 0.0000
vn 0.0000 -1.0000 0.0000
vn 0.0000 1.0000 0.0000
vn 1.0000 0.0000 0.0000
vn -1.0000 0.0000 0.0000
vn 0.0000 0.0000 -1.0000
vn 0.0000 0.0000 1.0000
usemtl Material.002
s off
f 3/1/1 4/2/1 2/3/1 1/4/1
f 5/5/2 7/6/2 8/7/2 6/8/2
f 1/4/3 2/3/3 8/7/3 7/6/3
f 4/2/4 3/1/4 5/5/4 6/8/4
f 2/3/5 4/2/5 6/8/5 8/7/5
f 3/1/6 1/4/6 7/6/6 5/5/6
